<svg width="32" height="32" viewBox="0 0 32 32" fill="#48F" xmlns="http://www.w3.org/2000/svg">
  <circle fill-opacity=".16" cx="16" cy="16" r="16"/>
  <path d="M10 14.463V21c0 .552.448 1 1 1h10c.552 0 1-.448 1-1v-6.543l-.99-.856-.562-1.222-1.323-.406-3.068-2.653-3.104 2.636-1.518.423-.254 1.082-1.18 1zM16.063 8L23 14v7c0 1.105-.895 2-2 2H11c-1.105 0-2-.895-2-2v-7l7.063-6z"/>
  <path d="M11.623 16.273v-3.378c0-.276.224-.5.5-.5h7.893c.276 0 .5.224.5.5v3.253l1-.52v-2.733c0-.83-.672-1.5-1.5-1.5h-7.893c-.828 0-1.5.67-1.5 1.5v2.732l1 .646z"/>
  <path d="M16 19.107l-6-3.393V21c0 .552.448 1 1 1h10c.552 0 1-.448 1-1v-5.286l-6 3.393zm0-1.15L23 14v7c0 1.105-.895 2-2 2H11c-1.105 0-2-.895-2-2v-7l7 3.958z"/>
  <path d="M10.37 22.37l4.514-4.514-.707-.707-4.515 4.513m12.033.707l-4.515-4.514.707-.707 4.515 4.513"/>
</svg>
